<svg width="32" height="32" viewBox="0 0 32 32" fill="none" xmlns="http://www.w3.org/2000/svg">
<path fill-rule="evenodd" clip-rule="evenodd" d="M16.1155 8.7373C11.9587 8.7373 8.73724 11.8142 8.73724 15.9697C8.73724 18.1434 9.61907 20.0217 11.0546 21.3193C11.1749 21.4288 11.2476 21.5804 11.2536 21.7439L11.2936 23.07C11.307 23.4931 11.739 23.7676 12.122 23.5981L13.5858 22.9455C13.7105 22.89 13.8486 22.8795 13.9792 22.9155C14.6517 23.103 15.3687 23.202 16.1155 23.202C20.2722 23.202 23.4937 20.1252 23.4937 15.9697C23.4937 11.8142 20.2722 8.7373 16.1155 8.7373ZM20.5454 14.3015L18.3779 17.7759C18.0335 18.328 17.2942 18.466 16.7776 18.0744L15.054 16.7678C14.8952 16.6478 14.6784 16.6493 14.5211 16.7693L12.1933 18.5545C11.883 18.793 11.4762 18.4165 11.6856 18.0834L13.853 14.609C14.1974 14.0569 14.9367 13.9189 15.4534 14.3105L17.1769 15.6171C17.3358 15.7371 17.5525 15.7356 17.7099 15.6156L20.0377 13.8304C20.3479 13.5919 20.7547 13.9684 20.5454 14.3015V14.3015Z" fill="white"/>
</svg>
