<svg width="32" height="32" viewBox="0 0 32 32" fill="none" xmlns="http://www.w3.org/2000/svg">
<path d="M8.90252 15.4333C8.90252 15.4333 15.4128 12.6913 17.6707 11.7257C18.5363 11.3396 21.4715 10.1037 21.4715 10.1037C21.4715 10.1037 22.8263 9.56302 22.7134 10.8761C22.6757 11.4168 22.3747 13.3092 22.0736 15.3561C21.622 18.2526 21.1328 21.4195 21.1328 21.4195C21.1328 21.4195 21.0576 22.3078 20.4178 22.4623C19.7781 22.6167 18.7244 21.9216 18.5363 21.7671C18.3857 21.6512 15.7139 19.9133 14.7354 19.0636C14.472 18.8319 14.171 18.3685 14.773 17.8278C16.1278 16.5533 17.746 14.9699 18.7244 13.9658C19.176 13.5023 19.6275 12.4209 17.746 13.734C15.0741 15.6264 12.4399 17.403 12.4399 17.403C12.4399 17.403 11.8378 17.7892 10.7088 17.4416C9.57985 17.094 8.26274 16.6306 8.26274 16.6306C8.26274 16.6306 7.35963 16.0513 8.90252 15.4333Z" fill="white"/>
</svg>
