<svg width="31" height="32" viewBox="0 0 31 32" fill="none" xmlns="http://www.w3.org/2000/svg">
<path d="M20.3638 11.402C20.261 11.3471 20.1609 11.287 20.0639 11.2218C19.7818 11.0292 19.5231 10.8024 19.2935 10.5461C18.719 9.86759 18.5044 9.1792 18.4254 8.69723H18.4286C18.3625 8.29717 18.3898 8.03833 18.394 8.03833H15.7772V18.4831C15.7772 18.6233 15.7772 18.7619 15.7715 18.8989C15.7715 18.9159 15.7699 18.9316 15.769 18.95C15.769 18.9575 15.769 18.9654 15.7674 18.9732C15.7674 18.9752 15.7674 18.9772 15.7674 18.9791C15.7398 19.3539 15.6234 19.7159 15.4285 20.0333C15.2336 20.3508 14.9661 20.6139 14.6495 20.7995C14.3196 20.9933 13.9464 21.0949 13.5668 21.0944C12.3476 21.0944 11.3596 20.0682 11.3596 18.8009C11.3596 17.5336 12.3476 16.5074 13.5668 16.5074C13.7976 16.5071 14.027 16.5446 14.2464 16.6184L14.2496 13.8682C13.5834 13.7793 12.9067 13.834 12.2621 14.0287C11.6174 14.2233 11.0189 14.5538 10.5041 14.9992C10.0531 15.4037 9.67395 15.8864 9.38369 16.4255C9.27323 16.622 8.85647 17.412 8.80601 18.6941C8.77426 19.4218 8.98598 20.1757 9.08691 20.4873V20.4939C9.15039 20.6773 9.39638 21.3035 9.79727 21.8313C10.1205 22.2547 10.5025 22.6267 10.9307 22.9352V22.9286L10.9371 22.9352C12.2039 23.8237 13.6084 23.7654 13.6084 23.7654C13.8515 23.7553 14.666 23.7654 15.5909 23.3129C16.6168 22.8113 17.2008 22.0639 17.2008 22.0639C17.5739 21.6174 17.8706 21.1085 18.0781 20.5591C18.3149 19.9165 18.394 19.1459 18.394 18.8379V13.2967C18.4257 13.3164 18.8485 13.6051 18.8485 13.6051C18.8485 13.6051 19.4576 14.0081 20.4079 14.2705C21.0897 14.4573 22.0083 14.4966 22.0083 14.4966V11.8151C21.6864 11.8512 21.0329 11.7463 20.3638 11.402Z" fill="white"/>
</svg>
